<svg viewBox="0 0 291.57 76.43" xmlns="http://www.w3.org/2000/svg"><text fill="#f47a20" font-family="NimbusSanL-Reg, 'Nimbus Sans L'" font-size="52" stroke="#fbb040" stroke-miterlimit="10" transform="translate(80.21 57.12)"><tspan x="0" y="0">Ou</tspan><tspan letter-spacing="0em" x="69.37" y="0">t</tspan><tspan letter-spacing="0em" x="83.3" y="0">c</tspan><tspan x="109.72" y="0">ome</tspan></text><path d="m60.07 14.52c.04.06.1.1.15.15s.11.1.15.15c.93 1.09 1.95 2.14 2.9 3.21.05.05.11.1.15.15s.11.1.15.15c.7 1.34 1.59 2.38 2.14 3.82.7 1.82 1.32 4.19 1.68 6.11.04.23.15.43.15.46v.15c2.44 14.83-.65 31.59-17.43 35.16-.28.06-.61.09-.92.15-.29.06-.62.1-.92.15-.48.08-.65-.07-1.22.15h-2.14c.9-.38 1.75-.9 2.6-1.38.09-.05.2-.09.31-.15.24-.13.58-.15.76-.46 5.17-2.8 7.68-7.26 9.48-12.69.86-2.58 1.66-5.47 1.68-8.25.34-6.3.55-13.35-3.36-18.65-.7-.95-.89-1.16-1.83-1.83-.1-.07-.21-.42-.46-.46h-.15c-.71-.74-1.81-1.16-2.75-1.53-2.25-.89-3.3-.91-5.66-1.07-.13 0-.41-.14-.76-.15-.16-.25-.58-.15-.84-.16-1.32-.01-2.65-.02-3.98 0-.26 0-.68-.1-.84.16-12.59.47-14.96 9.53-14.83 20.41 0 .26-.1.68.16.84-.02.14.02.31 0 .46-.28 1.98.47 4.92 1.07 6.88.43 1.39.82 2.88 1.83 3.97v.15c0 .09.14.13.15.15.5 1.02 1.74 2.23 2.75 2.75l.15.15s.1.11.15.15c.4.34.92.51 1.38.76l-.15.15c-.14-.04-.43.01-.61 0-.2-.02-.41.02-.61 0-2.32-.21-4.33-.32-6.57-1.07-.05-.02-.11.02-.15 0-.06-.02-.18-.1-.31-.15-.36-.14-.87-.42-1.22-.61-.04-.02-.11.02-.15 0-.08-.05-.31-.21-.46-.31-.51-.32-.92-.91-1.53-1.07-3.45-4.3-4.01-8.04-4.13-13.45-.02-.76-.01-1.53 0-2.29.02-1.24.05-2.29.15-3.52.37-4.52 1.42-8.66 3.52-12.69 2.17-3.33 4.38-5.34 7.8-7.34l.61-.31s.11.02.15 0c.73-.11 1.51-.7 2.14-.92 6.33-2.15 17.29-2.06 23.58.19 2.45.88 3.93 2.04 6.08 3.32z" fill="#fdbd38"/><path d="m10.7 55.79c-5.04-8.85-5.91-20.37-3.2-30.18 2.89-10.44 11.13-15.96 21.85-15.98l-1.37.61-1.38.76c-.32.07-.49.18-.76.31-.21.1-.54.32-.76.46-7.86 4.84-10.19 13.62-10.7 22.32-.25 4.27-.09 7.8 1.07 11.92.31 1.09.5 2.29 1.22 3.21v.15c.04.12.15.14.15.15.29.76.71 1.35 1.22 1.99.47.59 1.14 1.39 1.83 1.68.05.06.1.1.15.15s.1.1.15.15c3.02 2.75 9.01 2.81 12.84 2.75 5.03-.08 9.79-.6 13.22-4.74 4.7-5.67 4.67-19.23 1.89-25.74-1.18-2.77-3.26-4.99-5.94-6.37h.15c.41 0 .82-.02 1.22 0 5.05.19 8.21.92 11.77 4.59.26.92.84 1.71 1.22 2.6.03.07.14.12.15.15.02.04-.02.11 0 .15.71 1.8 1.19 4.03 1.38 5.96.98 10.07-1.02 22.76-10.41 28.34-6.05 3.6-15.47 3.98-22.3 2.99-2.41-.35-4.65-1.03-6.88-1.99-.04-.02-.11.02-.15 0s-.08-.12-.15-.15c-.16-.07-.34-.1-.46-.15-.03-.01-.07-.11-.15-.15-.12-.06-.32-.07-.5-.18-.99-.57-1.79-1.48-2.86-1.81-1.27-1.24-2.36-2.63-3.52-3.97z" fill="#f47a21"/><path d="m10.7 55.79c1.15 1.35 2.25 2.74 3.52 3.97 6.3 6.15 15.54 6.52 23.92 5.96.7-.05 6.07-1 6.35-1.22v.15c-5.34 2.12-15.44 2.03-21.01.6-5.74-1.47-9.92-4.47-12.77-9.47z" fill="#dededd"/><path d="m61.29 60.84c-.27.19-.7.41-.76.46-.14.11.2.27-.61.46 0 .14.05.31-.03.42s-2.06 1.25-2.36 1.39c-1.43.69-3.52 1.44-5.07 1.81s-4.63.93-6.07.65c-1.31-.25.04-1.27.68-1.52.57-.22.75-.07 1.22-.15v.15s-.11-.02-.15 0c-.25.09-1.76.77-1.12 1.07l.73.16c.14-.01.07-.3.09-.31.03-.02.63-.01.76 0 .19.02.58.3.92.15v-.31c.15 0 .31-.01.46 0 .04 0 .24.25.46.15.01-.1-.01-.21 0-.3.15.02.31-.01.46 0 .04 0 .24.25.46.15 0-.1-.01-.21 0-.3h.31c.02 0 .1.14.33.13.33-.02.73-.28 1.1-.27.19-.03.07-.23.1-.31.1-.01.21.02.31 0 .02 0 .07.13.3.09.29-.04 1.55-.4 1.38-.71h.15c.2-.03.41.02.61 0v-.31s.1.01.15 0c.83-.2 1.34-.2 1.83-.92.14-.2.15-.11.31-.15.89-.24.61-.37.76-.46.1-.06.76-.27.92-.31 0-.1 0-.2 0-.31.04 0 .19-.11.31-.15.08-.03.27.03.31 0 .04-.04-.04-.25 0-.31s.14-.11.15-.15h.61z" fill="#dcdcdb"/><path d="m63.59 18.34c1.52 1.76 2.46 3.29 3.43 5.67.1.23-.02.54.39.45.01.1-.01.21 0 .31s-.01.21 0 .31h.31c-.03.17 0 .43 0 .61.01.37.01.79.31 1.07 0 .08-.01.3 0 .31v.31s.31 0 .31 0v.31c0 .12-.04.15 0 .46.01.1-.01.21 0 .31.02.14.15.26.15.31.01.1-.01.21 0 .31.04.24.13.45.15.61.01.1-.01.21 0 .31.03.23.15.41.15.46.02.15-.02.31 0 .46.03.21.02.42.15.61v.46c.03.81.21 1.7.31 2.45.02.15-.02.31 0 .46.01.1-.01.21 0 .31h-.15c-.1 0-.2 0-.31 0 .03-4.26-1.07-9.24-3.06-12.99-.55-1.44-1.44-2.48-2.14-3.82z" fill="#b5b4b4"/><path d="m61.45 60.68c-.06-.07-.11-.29-.15-.31.15-.18.3-.45.46-.61.27-.27.66-.68.92-.92.18-.16.42-.31.61-.46.31-.23.34.14.46-.61 0-.05 0-.1 0-.15.28-.08.33-.34.31-.61.09-.02.22.02.31 0 .07-.02.17.04.27-.03.09-.06.99-1.6 1.13-1.85.62-1.11 1.39-2.73 1.81-3.92.1-.29.1-.31.15-.61 0-.05 0-.1 0-.15h.15c-.08.36.03.78-.23 1.53-1.26 3.55-3.26 6.52-6.19 8.72z" fill="#dcdcdb"/><path d="m67.41 24.46c-.4.09-.29-.21-.39-.45-.97-2.38-1.91-3.91-3.43-5.67-.05-.05-.1-.1-.15-.15l-.15-.15c-.96-1.07-1.97-2.12-2.9-3.21.36-.08.47.15.69.3 2.35 1.67 6.04 6.45 6.34 9.33z" fill="#d4d4d2"/><path d="m69.09 40.97h.15c-.02.14 0 .31 0 .46v.31c-.15.67-.28 1.71-.31 2.45v.46c0 .1-.01.21 0 .31-.2.08-.14.29-.15.46-.01.15.02.32 0 .46 0 .05-.12.25-.15.46-.02.09.02.21 0 .31-.03.17-.12.37-.15.61-.03.18-.13.34-.15.46h-.31c.41-2.21.78-4.46.76-6.73h.31z" fill="#b5b4b4"/><path d="m30.42 11.01c-.63.21-1.41.81-2.14.92.33-.17 1.01-.55.62-1-.29-.19-1.88-.01-2.3.08l1.38-.76c.73.51 2.21-.41 2.45.76z" fill="#d4d4d2"/><path d="m69.4 36.23h.15c-.06 1.19-.06 2.63 0 3.82h-.46v-3.82z" fill="#d4d4d2"/><path d="m69.24 31.95c-.02.3 0 .62 0 .92 0 .2-.08.51.15.61-.04.29.11.65-.15.92-.09-.75-.28-1.63-.31-2.45z" fill="#d4d4d2"/><path d="m69.4 42.65c-.24.13-.15.52-.15.76s-.03.54 0 .76h-.31c.02-.74.16-1.78.31-2.45.02.19.11.65.15.92z" fill="#d4d4d2"/><path d="m68.78 47.23s.12.09.11.2c-.04.41-.31.87-.27 1.32h-.29s0-.09 0-.14c.07-.39-.04-.69 0-.92.02-.12.13-.28.15-.46h.31z" fill="#e3e3e3"/><path d="m69.55 40.05c.01.28.31.92.15 1.38h-.46c0-.15-.02-.32 0-.46.02-.19.3-.57.15-.92h.15z" fill="#e3e3e3"/><path d="m69.24 34.85h.46c.16.45-.14 1.09-.15 1.38h-.15c.14-.41-.11-.81-.15-1.07-.01-.1.01-.21 0-.31z" fill="#e3e3e3"/><path d="m61.29 60.38s.1.24.15.31c-.05.04-.09.11-.15.15h-.61c.04-.1.11-.2.15-.31.02-.04-.02-.11 0-.15.13.03.37-.04.46 0z" fill="#b5b4b4"/><path d="m68.17 49.52c-.06.35-.24.63-.31.92h-.15c.02-.15-.02-.31 0-.46.04-.25-.01-.37 0-.46z" fill="#d0ceca"/><path d="m47.54 63.13c-.85.48-1.7.99-2.6 1.38-.2.08-.33.1-.46.15v-.15s-.05-.21.03-.27c.12-.09.44 0 .62-.07.8-.33 1.57-.81 2.41-1.03z" fill="#cfc9be"/><path d="m68.02 26.75c-.29-.28-.29-.7-.31-1.07.43.35.34.67.31 1.07z" fill="#d4d4d2"/><path d="m69.4 42.65c.02.16.29.46.15.77h-.31c0-.25-.09-.64.15-.77z" fill="#e3e3e3"/><path d="m69.24 44.18c0 .05.25.23.15.46h-.46c0-.15 0-.31 0-.46z" fill="#e3e3e3"/><path d="m69.09 31.49.32.1c.03.2-.16.33-.17.36h-.31v-.46h.15z" fill="#e3e3e3"/><path d="m69.09 45.4c.02.07.2.15.17.36l-.32.1h-.15c.02-.14-.01-.31 0-.46h.31z" fill="#e3e3e3"/><path d="m68.94 30.42c.62-.04.16.35.15.46h-.31c-.02-.15.02-.31 0-.46h.15z" fill="#e3e3e3"/><path d="m69.24 32.86h.31c.12.26-.14.51-.15.61-.23-.11-.15-.41-.15-.61z" fill="#e3e3e3"/><path d="m68.63 28.43h-.31c-.01-.1.01-.21 0-.31l.31-.15c.13.42.01.29 0 .46z" fill="#e3e3e3"/><path d="m68.78 47.23h-.31c.04-.24.12-.44.15-.61h.15s0 .47 0 .61z" fill="#d4d4d2"/><path d="m68.33 27.67c.44-.08.25.13.31.31l-.31.15c-.04-.3 0-.34 0-.46z" fill="#d4d4d2"/><path d="m68.33 48.61s0 .1 0 .15 0 .1 0 .15h-.46c.06-.2.02-.39.31-.46.03.06.1.11.15.15z" fill="#b5b4b4"/><path d="m69.09 30.88c-.02.2.01.41 0 .61h-.15c-.13-.19-.12-.4-.15-.61h.31z" fill="#d4d4d2"/><path d="m68.78 29.04c0 .13-.02.58 0 .61h-.15c-.02-.16-.12-.37-.15-.61h.31z" fill="#d4d4d2"/><path d="m68.94 29.96c-.02.15.01.31 0 .46h-.15s-.12-.23-.15-.46h.31z" fill="#d4d4d2"/><path d="m67.41 24.76h.46c.07.18-.15.29-.15.31h-.31c-.01-.1.01-.21 0-.31z" fill="#e3e3e3"/><path d="m68.94 46.32s.24.12.13.28c-.07.07-.27 0-.29.03h-.15c.02-.1-.02-.21 0-.31z" fill="#e3e3e3"/><path d="m68.94 45.86c.01.15-.02.31 0 .46h-.31c.04-.21.15-.41.15-.46h.15z" fill="#d4d4d2"/><path d="m68.63 28.74.29.02c.11.16-.13.26-.14.28h-.31c-.01-.1.01-.21 0-.31h.15z" fill="#e3e3e3"/><path d="m68.78 29.65s.21-.04.29.03c.11.16-.13.25-.13.28h-.31c-.01-.1.01-.21 0-.31z" fill="#e3e3e3"/><path d="m69.09 45.4h-.31c.01-.17-.05-.38.15-.46 0 .02.12.34.15.46z" fill="#d4d4d2"/><path d="m68.17 49.22c-.02.1.02.21 0 .31h-.46c.02-.16.14-.26.15-.31z" fill="#b5b4b4"/><path d="m68.33 48.91c-.03.15-.15.26-.15.31h-.31c.02-.09-.02-.22 0-.31z" fill="#d0ceca"/><path d="m68.63 28.43v.31h-.15s-.13-.16-.15-.31h.31z" fill="#d4d4d2"/><path d="m68.02 27.06c.1.09.29-.24.31.31h-.31s0-.31 0-.31z" fill="#d4d4d2"/><path d="m60.22 14.67c-.05-.05-.11-.09-.15-.15.06.03.1.11.15.15z" fill="#d4d4d2"/><path d="m67.56 28.89c.45-.09.28.22.33.51.33 1.9.61 3.83.59 5.76h.31v1.38c-.01 1.03-.01 2.17 0 3.21v1.07c-.46-.09-.3.23-.31.53-.03.97-.06 1.93-.17 2.89s-.63 2.73-.44 3.46c.02.09-.03.23 0 .31-.36-.11-.54 1.03-.57 1.33-.01.11.11.19.11.2v.31c-.41-.09-.29.21-.38.45-.32.91-.6 1.82-.97 2.71s-1.06 1.7-1.1 2.65c-.1.11-.2.21-.31.31-.24.23-.89.28-.76 1.07-.04.01-.09.12-.15.15-.13.07-.4-.17-.3.3h.3v.15s0 .1 0 .15c-.1.03-.21.14-.31.15-.56.1-1.53.36-.76.92-.26.24-.65.64-.92.92v-.3c-.79-.07-.73.5-.92.92-.02.04.02.11 0 .15-.09.02-.23-.03-.31 0l-.08-.15h-.23s0 .3 0 .3c-.02.03 0 .22 0 .31-.7-.01-.46.03-.83.25-.32.19-.3-.12-.39.36v.15c-.1 0-.2 0-.31 0-.28 0-.99.31-.92.61-.05.01-.11-.01-.15 0-.49.15-1.64.38-1.68.92-.1.02-.35.11-.46.15l-5.28 1.22c-.27.03-.24 0-.23-.23.01-.36.54-.17.15-.38 16.78-3.56 19.87-20.33 17.43-35.16z" fill="#7b7977"/><path d="m53.96 20.64h.15l.46.46c.94.67 1.14.89 1.83 1.83-.92-.36-1.57-1.11-2.44-1.61-3.19-1.82-6.8-2.09-10.4-2.06-.38 0-.97-.12-1.22.15-.05 0-.1 0-.15 0-9.15 0-14.49 3.24-16.01 12.65-1.06 6.6-.64 16.3 4.08 21.43-1.01-.52-2.25-1.74-2.75-2.75l-.15-.15v-.15c-3.29-8.39-3.98-24.92 5.3-29.78 5.39-2.83 15.77-2.39 21.3-.02z" fill="#c5c4c4"/><path d="m57.78 27.82c.52 1.35.82 2.75 1.22 4.13v.31c-.02.24-.07.65.15.76v.31c-.02.49.15.99.15 1.22v.46c.03.94.14 2.03.15 2.9v.92c-.02 1.52-.28 3.22-.32 4.8l-1.05 6.21c-1.8 5.43-4.31 9.89-9.48 12.69-.24.13-.58.15-.76.46-.11.06-.22.1-.31.15-.84.23-1.62.7-2.41 1.03-.18.07-.49-.02-.62.07-.08.06-.01.26-.03.27-.27.23-5.64 1.17-6.35 1.22-8.38.56-17.63.19-23.92-5.96 1.07.33 1.87 1.24 2.86 1.81.19.11.38.11.5.18l.15.15c.11.06.3.08.46.15l.15.15s.11-.02.15 0c.07.26.12.36.35.51 4.96 3.29 17.88 3.24 23.53 1.89 7.72-1.84 12.89-6.94 15.14-14.51 1.78-5.99 2.46-17.14-.37-22.8-.11-.22-.07-.48-.43-.4-.02-.04.02-.11 0-.15l-.15-.15c-.39-.89-.96-1.68-1.22-2.6 1.31 1.35 1.76 2.05 2.45 3.82z" fill="#afaead"/><path d="m43.56 18.34c.36 0 .71-.01 1.07 0 .3.01.61-.02.92 0 1.67.09 3.35.33 4.97.77.2.05.55.3.69 0 .94.37 2.04.79 2.75 1.53-5.54-2.37-15.91-2.81-21.3.02-9.27 4.87-8.59 21.4-5.3 29.78-1.01-1.09-1.41-2.59-1.83-3.97l-.61-4.36c-.03-.91.2-1.79-.46-2.52.02-.14-.02-.32 0-.46.6-3.47.24-6.56 1.27-10.12 2.59-9.02 9.29-10.77 17.84-10.67z" fill="#8f8f8e"/><path d="m39.13 17.88c1.43-.05 3-.04 4.43 0v.46c-8.55-.1-15.25 1.65-17.84 10.67-1.02 3.56-.66 6.65-1.27 10.12-.25-.16-.15-.58-.16-.84-.13-10.88 2.24-19.94 14.83-20.41z" fill="#7a7876"/><path d="m56.4 22.93c3.92 5.3 3.71 12.35 3.36 18.65 0-.02-.16-.17-.16-.37-.01-.76.15-1.68-.15-2.38 0-.31 0-.61 0-.92.26-.67.18-1.64.15-2.38-.01-.29.16-.61-.31-.53 0-.15 0-.31 0-.46.28-.33.13-.81.15-1.22h-.31c0-.1 0-.2 0-.3 0-.11.3-.48.15-.77h-.31c0-.1 0-.2 0-.3 0-1.29-.29-2.44-.8-3.71-.1-.24-.04-.49-.42-.41-.68-1.78-1.14-2.48-2.45-3.82-3.56-3.67-6.72-4.39-11.77-4.59v-.15c3.6-.03 7.2.24 10.4 2.06.88.5 1.53 1.25 2.44 1.61z" fill="#f0eeea"/><path d="m16.2 32.25c-.1 1.23-.13 2.27-.15 3.52-.25.57-.26 1.7 0 2.29.12 5.41.68 9.15 4.13 13.45 2.56 3.2 7.24 5 11.39 4.58.64-.06 1.34-.24.77-.93-.05-.06-.51-.44-.54-.45l.15-.15c.85.48 1.24.42 1.07 1.68-3.83.06-9.82 0-12.84-2.75l-.15-.15c-.05-.05-.1-.1-.15-.15-4.64-5.27-4.35-14.09-3.97-20.71.02-.37-.11-.5.31-.23z" fill="#f0eeed"/><path d="m26.6 11.01c.42-.09 2-.27 2.3-.08.39.45-.29.83-.62 1-.04.02-.12-.02-.15 0-.15.09-.37.17-.61.31-3.41 2-5.62 4.01-7.8 7.34-4.97 7.61-6.1 23.26-1.78 31.36.06.12.36.54.1.59-.51-.64-.93-1.22-1.22-1.99l-.15-.15v-.15c-.11-1.09-.67-2.15-.92-3.21-.02-.09.02-.21 0-.31-.03-.16.06-.38-.15-.46.01-.1 0-.21 0-.31 0-.23.03-.43-.15-.61.01-.1 0-.21 0-.31.01-.23.03-.43-.15-.61.02-.15 0-.31 0-.46.01-.27.06-.54-.15-.76.02-.25-.01-.51 0-.76.02-.48.1-1.13-.15-1.53.06-1.22.07-2.76 0-3.97.26-.48.18-1.26.15-1.83-.01-.25.02-.51 0-.76.27-.3.12-.72.15-1.07.01-.15 0-.31 0-.46 0-.33.02-.4 0-.76 0-.1 0-.2 0-.31h.31c.02-.2-.02-.41 0-.61.02-.15 0-.31 0-.46 0-.18 0-.39 0-.46 0-.1 0-.2 0-.31.46.09.27-.23.33-.51.78-3.81 2-5.87 3.49-9.28.02-.05-.02-.14 0-.15.25-.15.19.23.31-.31.01-.05-.01-.11 0-.15.58-.15.93-1.08 1.22-1.53.08-.12.11-.23.15-.31.85-.48 1.82-1.44 2.29-2.29.07-.04.21-.1.31-.15.28-.15.61-.1.61-.61.03-.02.13.03.15 0l3.21-2.07c.06-.34-.15-.22-.38-.23-.51-.03-1.05.29-1.45 0 .28-.13.44-.23.76-.31z" fill="#a6a5a5"/><path d="m16.2 32.25c-.42-.27-.29-.15-.31.23-.38 6.62-.66 15.45 3.97 20.71-.7-.29-1.36-1.09-1.83-1.68.26-.05-.03-.47-.1-.59-4.33-8.09-3.19-23.75 1.78-31.36-2.1 4.02-3.15 8.17-3.52 12.69z" fill="#d0ceca"/><path d="m21.71 52.58.46.31s.11-.02.15 0c.08.25.2.42.4.59 1.54 1.31 6.75 2.51 8.69 2.16.2-.04.44-.15.38-.38l-.61-.54c.18.01.47-.04.61 0 .03 0 .49.39.54.45.56.69-.13.86-.77.93-4.15.41-8.82-1.39-11.39-4.58.61.16 1.02.75 1.53 1.07z" fill="#c2c1c1"/><path d="m68.78 35.16c-.1 0-.2 0-.31 0 .02-1.93-.26-3.87-.59-5.76-.05-.29.13-.59-.33-.51 0-.05 0-.1 0-.15l-.15-.46c-.36-1.92-.98-4.29-1.68-6.11 1.99 3.75 3.08 8.73 3.06 12.99z" fill="#898888"/><path d="m59.77 41.58c-.02 2.79-.83 5.67-1.68 8.25l1.05-6.21c.04-1.57.3-3.28.32-4.8.3.7.13 1.62.15 2.38 0 .2.16.35.16.37z" fill="#dbd9d5"/><path d="m30.57 54.72.46.61c-2.27.09-4.53-.42-6.62-1.26-.24-.1-.49-.04-.41-.42 2.24.75 4.25.86 6.57 1.07z" fill="#84827e"/><path d="m23.54 53.5.31.15s.11-.02.15 0c-.08.38.18.32.41.42 2.09.84 4.35 1.35 6.62 1.26l-.46-.61c.2.02.41-.02.61 0l.61.54c.05.23-.18.34-.38.38-1.94.35-7.15-.85-8.69-2.16-.2-.17-.32-.33-.4-.59.35.19.86.47 1.22.61z" fill="#9c9c9c"/><path d="m55.49 63.43c-.22.09-.55.17-.46.46-.69.15-.69.35-1.53.31-.1 0-.2 0-.31 0-.02.1.02.23 0 .31-.1.01-.21-.01-.31 0l-.08-.15h-.23s0 .3 0 .3c-.1.01-.21-.01-.31 0l-.08-.15h-.23s0 .3 0 .3c-.09 0-.22.01-.31 0-.02 0-.13-.22-.3-.15-.01.1.01.21 0 .3-.15-.01-.31.01-.46 0-.04 0-.24-.25-.46-.15-.01.1.01.21 0 .3-.15-.02-.31.01-.46 0-.08 0-.36-.28-.61-.15v.31c-.19 0-.43-.02-.61 0v-.76c.11-.03.33-.23.46-.31.31-.06.64-.09.92-.15.39.21-.14.02-.15.38 0 .24-.04.26.23.23l5.28-1.22z" fill="#878685"/><path d="m25.53 46.47c-.6-1.95-1.35-4.9-1.07-6.88.66.73.43 1.62.46 2.52z" fill="#807e7a"/><path d="m51.21 19.11c-.14.3-.49.06-.69 0-1.61-.44-3.3-.68-4.97-.77v-.31c2.36.16 3.41.18 5.66 1.07z" fill="#807e7a"/><path d="m44.79 17.88c-.05 0-.1 0-.15 0-.36-.01-.71 0-1.07 0-1.44-.04-3-.05-4.43 0 .16-.25.58-.15.84-.16 1.32-.02 2.65-.01 3.98 0 .26 0 .68-.1.84.16z" fill="#99865f"/><path d="m45.55 18.04v.31c-.3-.02-.61.01-.92 0v-.46h.15c.36.02.63.14.76.15z" fill="#7a7876"/><path d="m16.05 38.06c-.26-.6-.25-1.73 0-2.29-.01.76-.02 1.53 0 2.29z" fill="#edd4a2"/><path d="m49.22 64.2c-.13.07-.35.28-.46.31-.13.03-.34-.04-.46 0v-.15c.3-.05.63-.1.92-.15z" fill="#b5b4b4"/><path d="m67.56 28.74s-.11-.23-.15-.46z" fill="#7b7977"/><path d="m28.13 11.92-.61.31c.24-.14.46-.22.61-.31z" fill="#d4d4d2"/><path d="m23.85 53.65-.31-.15c.13.05.25.13.31.15z" fill="#84827e"/><path d="m48.61 62.52c-.18.31-.53.33-.76.46.19-.31.52-.33.76-.46z" fill="#cfc9be"/><path d="m22.16 52.89-.46-.31c.15.1.38.26.46.31z" fill="#9c9c9c"/><path d="m63.43 18.19c-.05-.05-.1-.1-.15-.15z" fill="#b5b4b4"/><path d="m54.57 21.09-.46-.46c.25.03.36.39.46.46z" fill="#8f8f8e"/><path d="m30.57 53.8c-.06-.05-.1-.1-.15-.15z" fill="#c5c4c4"/><path d="m27.51 50.75s-.15-.06-.15-.15z" fill="#8f8f8e"/><path d="m58.08 32.86c.49-.09.26.25.3.54 1.49 11.22-1.26 25.15-12.84 29.8-5.11 2.06-14.34 2.49-19.7 1.35-.27-.06-.57.07-.48-.35 6.83.99 16.26.6 22.3-2.99 9.39-5.58 11.39-18.27 10.41-28.34z" fill="#7a7774"/><path d="m56.71 26.9c.36-.08.32.18.43.4 2.83 5.65 2.15 16.81.37 22.8-2.25 7.57-7.42 12.66-15.14 14.51-5.65 1.35-18.56 1.39-23.53-1.89-.23-.15-.27-.25-.35-.51 2.22.96 4.47 1.64 6.88 1.99-.09.42.21.3.48.35 5.36 1.14 14.59.71 19.7-1.35 11.58-4.66 14.33-18.59 12.84-29.8-.04-.28.2-.62-.3-.54-.19-1.93-.67-4.16-1.38-5.96z" fill="#878685"/><path d="m25.07 11.77h1.22s-.02.44-.02.44c-.53.31-1.23.71-1.74 1.09-.1.08-.05.28-.07.31s-.12-.02-.15 0c-.16.12-.65.08-.61.61-.1.05-.24.11-.31.15-.96.6-1.69 1.35-2.29 2.29-.05.07-.08.19-.15.31-.59.13-1.06.99-1.22 1.53-.01.04.01.1 0 .15h-.31s0 .31 0 .31c-.02.01.02.11 0 .15-.34-.08-.32.19-.46.38-1.46 2.07-3.18 6.89-3.37 9.4v.31c-.23.02-.23.44 0 .46 0 .15.02.31 0 .46h-.31c0 .2-.01.41 0 .61v.31c-.24.1-.24.66 0 .76 0 .15.01.31 0 .46h-.31c-.16.36.14.93.15 1.07.02.25-.01.51 0 .76h-.76c.51-8.7 2.84-17.47 10.7-22.32z" fill="#7a7876"/><path d="m14.83 34.09c.02.53-.03 1.07 0 1.61.02.24.15.21.15.23.07 1.22.06 2.75 0 3.97 0 .01-.13-.02-.15.23-.03.43 0 .87 0 1.3h.31c-.01.25.02.51 0 .76 0 .04-.3.48-.15.77h.31c0 .15.02.31 0 .46 0 .03-.3.34-.15.61h.31c0 .1.01.21 0 .31 0 .03-.3.34-.15.61h.31c0 .1.01.21 0 .31 0 .06-.25.23-.15.46h.3c.02.1-.02.22 0 .31h-.31c-1.16-4.12-1.32-7.65-1.07-11.92h.46z" fill="#817b77"/><path d="m25.83 11.31c.4.28.94-.03 1.45 0 .23.01.45-.11.38.23l-3.21 2.07s-.03-.23.07-.31c.51-.37 1.22-.78 1.74-1.09l.02-.44h-1.22c.22-.14.55-.36.76-.46z" fill="#898888"/><path d="m15.74 46.01c.25 1.06.8 2.12.92 3.21-.72-.92-.92-2.12-1.22-3.21h.31z" fill="#898888"/><path d="m18.34 62.21-.15-.15c.07.03.12.14.15.15z" fill="#878685"/><path d="m17.73 61.91-.15-.15c.08.04.12.14.15.15z" fill="#878685"/><path d="m16.81 49.52s-.11-.04-.15-.15z" fill="#898888"/><path d="m56.71 26.75s-.12-.08-.15-.15z" fill="#878685"/><path d="m20.18 53.5c-.05-.05-.1-.1-.15-.15z" fill="#d0ceca"/><path d="m48.15 64.5-.31.92s.05.3-.09.31l-.73-.16c-.64-.3.87-.98 1.12-1.07z" fill="#b5b4b4"/><path d="m48.76 64.5v.76c-.07 0-.14.08-.15.15-.13-.01-.73-.02-.76 0l.31-.92s.11.01.15 0c.12-.04.32.03.46 0z" fill="#9c9c9c"/><path d="m57.93 62.67c-.49.72-1 .72-1.83.92.1-.09.2-.24.31-.31.17-.11.97-.58 1.07-.61.11-.04.32.02.46 0z" fill="#b5b4b4"/><path d="m55.18 63.89c.16.31-1.1.66-1.38.71-.23.04-.28-.1-.3-.09v-.31c.84.05.84-.15 1.53-.31.05-.01.1 0 .15 0z" fill="#b5b4b4"/><path d="m53.19 64.5c-.03.08.09.28-.1.31-.37 0-.77.25-1.1.27-.23.02-.31-.13-.33-.13v-.15c.09.01.21 0 .31 0 .15 0 .26-.15.31-.15.1-.01.21.01.31 0 .14-.01.27-.15.31-.15.1-.01.21.01.31 0z" fill="#b5b4b4"/><path d="m59.92 61.45v.31c-.16.04-.82.25-.92.31-.15.09.12.21-.76.46l-.15-.15c.29-.08.38-.17.61-.31.06-.04.27.04.31 0 .03-.03-.02-.21 0-.31 0-.05 0-.1 0-.15.29-.14.65-.09.92-.15z" fill="#b5b4b4"/><path d="m56.4 63.28c-.11.07-.21.21-.31.31-.05.01-.1 0-.15 0-.24.04-.47.07-.61.31-.05 0-.1 0-.15 0s-.1-.01-.15 0c-.09-.29.24-.37.46-.46.11-.04.36-.13.46-.15.13-.03.31.02.46 0z" fill="#9c9c9c"/><path d="m49.37 65.27h.15v.31c-.34.15-.73-.13-.92-.15.02-.07.08-.15.15-.15.19-.02.42 0 .61 0z" fill="#b5b4b4"/><path d="m49.98 65.12v.15c-.15-.01-.31 0-.46 0-.05 0-.1 0-.15 0v-.31c.25-.13.54.15.61.15z" fill="#9c9c9c"/><path d="m58.08 62.36.15.15c-.15.04-.17-.05-.31.15-.14.02-.35-.04-.46 0l.15-.31s.11.01.15 0c.09-.02.22.02.31 0z" fill="#9c9c9c"/><path d="m50.44 65.12c-.01.1 0 .21 0 .3-.22.1-.41-.15-.46-.15v-.15c.15.01.31-.02.46 0z" fill="#b5b4b4"/><path d="m51.36 64.96c-.01.1 0 .2 0 .3-.22.1-.42-.15-.46-.15v-.15c.15.01.31-.01.46 0z" fill="#b5b4b4"/><path d="m50.9 64.96v.15c-.15-.01-.31.02-.46 0 .01-.1 0-.21 0-.3.22-.1.41.15.46.15z" fill="#9c9c9c"/><path d="m55.94 63.59v.31c-.2.02-.41-.03-.61 0 .14-.23.37-.26.61-.31z" fill="#b5b4b4"/><path d="m51.66 64.81v.15c-.1 0-.21 0-.31 0 .01-.1 0-.21 0-.3.17-.06.29.15.3.15z" fill="#9c9c9c"/><path d="m53.5 64.2v.31c-.1.02-.21-.01-.31 0 .03-.07-.02-.21 0-.31z" fill="#9c9c9c"/><path d="m69.09 35.16v1.38h-.31c0-.46 0-.92 0-1.38z" fill="#a6a5a5"/><path d="m67.56 51.21c-.42 1.19-1.19 2.81-1.81 3.92-.14.26-1.04 1.79-1.13 1.85-.1.07-.2.01-.27.03l.31-1.07c.1-.1.21-.2.31-.31 1.09-1.21 1.37-3.42 2.14-4.59l.46.15z" fill="#b5b4b4"/><path d="m63.43 57.93-.15.46c-.2.15-.43.3-.61.46-.76-.56.2-.82.76-.92z" fill="#878685"/><path d="m60.84 60.38c.19-.42.12-.98.92-.92v.3c-.16.16-.31.43-.46.61-.09-.04-.33.03-.46 0z" fill="#878685"/><path d="m64.66 55.94-.31 1.07c-.09.02-.22-.02-.31 0-.05.01-.11-.01-.15 0-.13-.79.52-.84.76-1.07z" fill="#878685"/><path d="m67.56 51.21-.46-.15c.11-.17.15-.19.31-.31.09-.06.21-.09.31-.15-.05.3-.05.32-.15.61z" fill="#d0ceca"/><path d="m63.28 58.39.15-.46c.09-.02.21-.12.31-.15-.12.75-.15.38-.46.61z" fill="#b5b4b4"/><path d="m67.71 49.98c-.02.14.02.31 0 .46v.15c-.09.06-.22.09-.31.15-.12-.22 0-.46 0-.61l.15.15v-.46s.15.15.15.15z" fill="#b5b4b4"/><path d="m63.74 57.63c0-.05 0-.1 0-.15v-.31c.06-.03.11-.14.15-.15.05-.01.11.01.15 0 .03.27-.03.53-.31.61z" fill="#9c9c9c"/><path d="m68.78 40.81v.15c.02 2.27-.35 4.51-.76 6.73h-.15c-.19-.73.33-2.54.44-3.46.11-.97.14-1.92.17-2.89 0-.29-.15-.61.31-.53z" fill="#898888"/><path d="m69.09 39.74v1.22h-.31c0-.05 0-.1 0-.15 0-.36 0-.71 0-1.07z" fill="#a6a5a5"/><path d="m68.33 47.69c-.04.22.07.53 0 .92-.05-.04-.13-.09-.15-.15-.13-.3-.3-.43-.31-.46-.03-.07.02-.22 0-.31z" fill="#9c9c9c"/><path d="m69.09 36.53v3.21h-.31c-.01-1.04-.01-2.18 0-3.21z" fill="#898888"/><path d="m60.84 60.53c-.04.11-.11.2-.15.31-.02.04-.11.09-.15.15-.1 0-.2 0-.31 0 0-.09-.02-.27 0-.31 0-.01.29-.15.31-.15.08-.03.21.02.31 0z" fill="#9c9c9c"/><path d="m60.53 60.99c-.04.05.04.27 0 .31-.03.03-.22-.03-.31 0v-.31z" fill="#b5b4b4"/><path d="m67.71 49.52c-.01.09.04.21 0 .46l-.15-.15v.46s-.15-.15-.15-.15c0-.1 0-.2 0-.31s0-.21 0-.31h.31z" fill="#9c9c9c"/><path d="m60.22 60.99v.31c-.11.04-.27.14-.31.15-.27.06-.63.01-.92.15.09-.49.07-.17.39-.36.37-.22.13-.26.83-.25z" fill="#878685"/><path d="m67.87 48s.18.16.31.46c-.28.07-.24.25-.31.46-.02.08.02.21 0 .31 0 .04-.13.14-.15.31h-.31s-.12-.09-.11-.2c.03-.3.21-1.44.57-1.33z" fill="#898888"/><path d="m67.41 49.83v.31c0 .15-.12.39 0 .61-.16.12-.19.13-.31.31-.77 1.17-1.05 3.37-2.14 4.59.04-.95.73-1.78 1.1-2.65s.65-1.8.97-2.71c.09-.24-.03-.54.38-.45z" fill="#898888"/><path d="m57.63 62.36-.15.31c-.1.03-.9.51-1.07.61-.15.02-.32-.03-.46 0 .04-.54 1.19-.77 1.68-.92z" fill="#878685"/><path d="m58.7 61.75v.31c-.23.14-.32.23-.61.31-.09.02-.22-.02-.31 0-.07-.31.64-.6.92-.61z" fill="#878685"/><path d="m63.74 57.17v.31h-.3c-.1-.47.18-.24.3-.31z" fill="#878685"/><path d="m60.53 60.53s-.3.14-.31.15v-.3s.23 0 .23 0z" fill="#878685"/><path d="m59 61.75c-.02.09.03.28 0 .31-.04.04-.25-.04-.31 0v-.31z" fill="#9c9c9c"/><path d="m57.78 27.82c.38-.08.32.18.42.41.51 1.27.81 2.42.8 3.71-.41-1.38-.7-2.78-1.22-4.13z" fill="#dbd9d5"/><path d="m59.31 35c.46-.09.29.23.31.53.03.73.11 1.7-.15 2.38 0-.88-.12-1.96-.15-2.9z" fill="#dbd9d5"/><path d="m59.15 33.32h.31c-.02.41.13.89-.15 1.22 0-.23-.17-.73-.15-1.22z" fill="#dbd9d5"/><path d="m59 32.25h.31c.15.28-.14.66-.15.76-.23-.12-.17-.53-.15-.76z" fill="#dbd9d5"/><path d="m44.63 17.88v.46c-.36-.01-.71 0-1.07 0v-.46c.36 0 .71-.01 1.07 0z" fill="#807e7a"/><g fill="#898888"><path d="m19.41 19.11c-1.49 3.4-2.71 5.47-3.49 9.28-.06.28.14.6-.33.51.18-2.51 1.91-7.33 3.37-9.4.13-.19.11-.45.46-.38z"/><path d="m23.39 14.37c-.48.85-1.44 1.82-2.29 2.29.6-.94 1.33-1.7 2.29-2.29z"/><path d="m15.13 34.09c.02.57.11 1.35-.15 1.83 0-.01-.13.02-.15-.23-.04-.53.02-1.07 0-1.61h.31z"/><path d="m20.94 16.97c-.29.44-.64 1.38-1.22 1.53.16-.54.64-1.4 1.22-1.53z"/><path d="m15.13 41.42h-.31c0-.43-.02-.87 0-1.3.01-.24.15-.21.15-.23.26.4.17 1.04.15 1.53z"/><path d="m15.29 32.25c-.03.35.12.77-.15 1.07 0-.14-.31-.71-.15-1.07h.31z"/><path d="m15.29 42.95h-.31c-.15-.28.15-.72.15-.76.21.22.16.49.15.76z"/><path d="m24.3 13.6c0 .51-.33.46-.61.61-.03-.53.45-.49.61-.61z"/><path d="m15.29 31.79c-.24-.1-.24-.66 0-.76.02.37 0 .43 0 .76z"/><path d="m15.44 44.02h-.31c-.15-.27.15-.58.15-.61.18.18.17.38.15.61z"/><path d="m15.59 44.94h-.31c-.15-.28.15-.58.15-.61.18.18.16.38.15.61z"/><path d="m15.59 30.11c-.02.2.02.41 0 .61h-.31c-.01-.2 0-.41 0-.61z"/><path d="m15.59 29.65c-.23-.02-.23-.44 0-.46z"/><path d="m15.74 45.7h-.3c-.1-.23.14-.4.15-.46.21.08.13.3.15.46z"/><path d="m19.72 18.65c-.11.54-.06.16-.31.31v-.31s.31 0 .31 0z"/></g><path d="m52.28 64.66s-.16.14-.31.15v-.3s.23 0 .23 0z" fill="#9c9c9c"/><path d="m52.89 64.5s-.16.14-.31.15v-.3s.23 0 .23 0z" fill="#9c9c9c"/></svg>