<?xml version="1.0" encoding="UTF-8"?><svg id="a" xmlns="http://www.w3.org/2000/svg" viewBox="0 0 512 512"><defs><style>.b{fill:#898888;}.c{fill:#d0ceca;}.d{fill:#c2c1c1;}.e{fill:#e3e3e3;}.f{fill:#b5b4b4;}.g{fill:#fdbd38;}.h{fill:#f0eeea;}.i{fill:#dcdcdb;}.j{fill:#afaead;}.k{fill:#7a7876;}.l{fill:#c5c4c4;}.m{fill:#d4d4d2;}.n{fill:#7b7977;}.o{fill:#dededd;}.p{fill:#7a7774;}.q{fill:#f47a21;}.r{fill:#8f8f8e;}.s{fill:#84827e;}.t{fill:#817b77;}.u{fill:#cfc9be;}.v{fill:#807e7a;}.w{fill:#f0eeed;}.x{fill:#9c9c9c;}.y{fill:#878685;}.z{fill:#99865f;}.aa{fill:#dbd9d5;}.ab{fill:#edd4a2;}.ac{fill:#a6a5a5;}</style></defs><path class="g" d="M402.43,97.28c.28.4.68.69,1.02,1.02s.72.67,1.02,1.02c6.24,7.28,13.04,14.33,19.46,21.5.32.36.71.67,1.02,1.02s.72.67,1.02,1.02c4.67,9,10.64,15.98,14.34,25.6,4.68,12.2,8.84,28.09,11.26,40.96.29,1.53,1,2.91,1.02,3.07.06.33-.05.69,0,1.02,16.35,99.34-4.36,211.64-116.74,235.52-1.87.4-4.09.62-6.14,1.02-1.93.38-4.16.69-6.14,1.02-3.18.54-4.38-.47-8.19,1.02h-14.34c6.02-2.57,11.71-6.03,17.41-9.22.61-.34,1.33-.62,2.05-1.02,1.6-.89,3.9-1.01,5.12-3.07,34.61-18.76,51.43-48.6,63.49-84.99,5.73-17.3,11.1-36.63,11.26-55.3,2.29-42.22,3.71-89.44-22.53-124.93-4.68-6.33-5.98-7.8-12.29-12.29-.67-.48-1.4-2.84-3.07-3.07h-1.02c-4.76-4.92-12.14-7.74-18.43-10.24-15.08-5.99-22.1-6.1-37.89-7.17-.89-.06-2.73-.92-5.12-1.02-1.06-1.7-3.89-1.02-5.62-1.04-8.87-.09-17.79-.11-26.65,0-1.73.02-4.55-.66-5.62,1.04-84.36,3.13-100.25,63.82-99.35,136.72.02,1.73-.66,4.55,1.04,5.62-.16.94.14,2.1,0,3.07-1.89,13.28,3.15,32.99,7.17,46.08,2.85,9.3,5.49,19.32,12.29,26.62v1.02c.02.62.95.88,1.02,1.02,3.35,6.8,11.65,14.97,18.43,18.43.33.36.69.68,1.02,1.02s.65.71,1.02,1.02c2.7,2.27,6.2,3.41,9.22,5.12l-1.02,1.02c-.94-.28-2.86.1-4.1,0-1.35-.11-2.75.12-4.1,0-15.57-1.42-29-2.16-44.03-7.17-.31-.1-.72.11-1.02,0-.37-.13-1.2-.69-2.05-1.02-2.4-.94-5.85-2.8-8.19-4.1-.26-.15-.77.15-1.02,0-.54-.31-2.06-1.41-3.07-2.05-3.39-2.14-6.15-6.08-10.24-7.17-23.12-28.83-26.86-53.87-27.65-90.11-.11-5.09-.08-10.27,0-15.36.14-8.33.36-15.32,1.02-23.55,2.45-30.28,9.51-58.04,23.55-84.99,14.56-22.29,29.35-35.77,52.22-49.15l4.1-2.05c.25-.15.75.14,1.02,0,4.87-.71,10.14-4.72,14.34-6.14,42.43-14.38,115.81-13.78,157.95,1.28,16.41,5.87,26.34,13.65,40.71,22.27Z"/><path class="q" d="M71.68,373.76c-33.78-59.26-39.62-136.46-21.42-202.16,19.38-69.96,74.55-106.92,146.34-107.08l-9.21,4.09-9.22,5.12c-2.14.48-3.26,1.19-5.12,2.05-1.41.65-3.64,2.16-5.12,3.07-52.63,32.45-68.28,91.23-71.68,149.5-1.67,28.63-.62,52.29,7.17,79.87,2.06,7.3,3.34,15.36,8.19,21.5v1.02c.27.79,1,.96,1.02,1.02,1.98,5.11,4.75,9.03,8.19,13.31,3.17,3.95,7.61,9.29,12.29,11.26.32.37.69.67,1.02,1.02s.66.7,1.02,1.02c20.23,18.41,60.38,18.82,86.02,18.43,33.67-.51,65.62-3.99,88.59-31.73,31.46-37.98,31.29-128.82,12.64-172.41-7.92-18.52-21.83-33.45-39.79-42.64.34,0,.68,0,1.02,0,2.72.02,5.48-.1,8.19,0,33.8,1.29,54.99,6.13,78.85,30.72,1.73,6.18,5.61,11.48,8.19,17.41.21.47.93.79,1.02,1.02.12.29-.12.73,0,1.02,4.75,12.08,7.96,27.01,9.22,39.94,6.57,67.45-6.81,152.47-69.71,189.87-40.51,24.09-103.64,26.69-149.42,20.05-16.12-2.34-31.18-6.91-46.08-13.31-.29-.12-.74.13-1.02,0-.25-.11-.56-.81-1.02-1.02-1.06-.49-2.31-.65-3.07-1.02-.19-.1-.49-.74-1.02-1.02-.81-.42-2.12-.45-3.38-1.18-6.6-3.83-12-9.9-19.15-12.13-8.48-8.28-15.84-17.59-23.55-26.62Z"/><path class="o" d="M71.68,373.76c7.71,9.03,15.08,18.34,23.55,26.62,42.17,41.21,104.09,43.7,160.25,39.93,4.71-.32,40.68-6.67,42.51-8.18v1.02c-35.78,14.22-103.41,13.6-140.72,4.02-38.48-9.88-66.49-29.91-85.58-63.41Z"/><path class="i" d="M410.62,407.55c-1.82,1.29-4.71,2.76-5.12,3.07-.97.74,1.36,1.78-4.1,3.07.02.92.31,2.04-.22,2.83s-13.78,8.37-15.78,9.34c-9.59,4.65-23.6,9.64-33.97,12.11-10.02,2.39-31,6.2-40.63,4.37-8.8-1.67.27-8.53,4.58-10.21,3.81-1.49,5.01-.48,8.19-1.02v1.02c-.32.09-.72-.1-1.02,0-1.69.58-11.79,5.16-7.52,7.14l4.89,1.08c.94-.09.48-2.01.58-2.08.21-.15,4.24-.1,5.12,0,1.25.14,3.85,2.03,6.15,1.02v-2.05c1.01.04,2.05-.09,3.06,0,.29.02,1.61,1.68,3.07,1.02.07-.67-.08-1.38,0-2.04,1,.12,2.06-.08,3.07,0,.28.02,1.61,1.68,3.07,1.02.07-.67-.08-1.38,0-2.04.67.05,1.37-.02,2.05,0,.12,0,.67.96,2.22.84,2.2-.17,4.91-1.86,7.36-1.83,1.28-.2.46-1.53.66-2.09.65-.1,1.4.11,2.05,0,.1-.02.44.87,2,.63,1.91-.3,10.36-2.67,9.26-4.73.33-.06.69.04,1.02,0,1.32-.17,2.77.15,4.1,0v-2.05c.32-.06.7.08,1.02,0,5.58-1.31,9-1.34,12.29-6.14.92-1.34,1.02-.74,2.05-1.02,5.95-1.64,4.1-2.46,5.12-3.07.67-.4,5.06-1.79,6.14-2.05-.01-.68,0-1.37,0-2.05.27-.06,1.3-.75,2.05-1.02.55-.2,1.83.22,2.05,0,.24-.24-.24-1.69,0-2.05.27-.4.91-.75,1.02-1.02h4.1Z"/><path class="f" d="M425.98,122.88c10.18,11.76,16.5,22.03,23,37.98.64,1.57-.1,3.58,2.6,2.98.07.67-.08,1.38,0,2.05s-.1,1.38,0,2.05h2.05c-.17,1.15-.04,2.85,0,4.1.09,2.49.09,5.31,2.05,7.17-.04.51-.08,1.98,0,2.05v2.05s2.05,0,2.05,0c.02.68-.02,1.37,0,2.05.03.77-.24,1.03,0,3.07.08.66-.09,1.39,0,2.05.13.97.98,1.77,1.02,2.05.1.65-.1,1.4,0,2.05.25,1.6.87,3.03,1.02,4.1.1.65-.09,1.39,0,2.05.22,1.53.98,2.74,1.02,3.07.13.98-.13,2.09,0,3.07.19,1.44.13,2.83,1.02,4.1v3.07c.19,5.45,1.43,11.36,2.05,16.38.12.99-.13,2.09,0,3.07.09.66-.1,1.4,0,2.05h-1.02c-.68-.03-1.37.05-2.05,0,.17-28.53-7.14-61.89-20.48-87.04-3.69-9.62-9.67-16.6-14.34-25.6Z"/><path class="i" d="M411.65,406.53c-.38-.45-.77-1.94-1.02-2.05,1-1.23,2.01-3.02,3.07-4.1,1.8-1.82,4.39-4.56,6.14-6.14,1.2-1.08,2.78-2.1,4.1-3.07,2.1-1.56,2.28.95,3.07-4.1.05-.33-.01-.69,0-1.02,1.88-.53,2.22-2.31,2.05-4.1.59-.15,1.45.15,2.05,0,.47-.12,1.13.27,1.81-.21.59-.42,6.62-10.69,7.58-12.41,4.17-7.47,9.31-18.28,12.11-26.29.67-1.92.68-2.08,1.02-4.1.06-.33-.05-.69,0-1.02h1.02c-.54,2.42.21,5.25-1.55,10.22-8.43,23.8-21.87,43.66-41.46,58.38Z"/><path class="m" d="M451.58,163.84c-2.7.6-1.96-1.41-2.6-2.98-6.51-15.95-12.82-26.21-23-37.98-.31-.35-.7-.66-1.02-1.02l-1.02-1.02c-6.42-7.18-13.22-14.22-19.46-21.5,2.43-.51,3.13.97,4.62,2.03,15.74,11.16,40.45,43.19,42.48,62.48Z"/><path class="f" d="M462.85,274.43h1.02c-.12.94-.02,2.09,0,3.07.02.68-.06,1.38,0,2.05-1.01,4.49-1.9,11.46-2.05,16.38-.03,1.01-.06,2.07,0,3.07.04.67-.09,1.4,0,2.05-1.37.5-.93,1.96-1.02,3.07-.08,1,.14,2.12,0,3.07-.05.34-.77,1.68-1.02,3.07-.11.63.11,1.41,0,2.05-.19,1.15-.78,2.46-1.02,4.1-.17,1.19-.9,2.28-1.02,3.07h-2.05c2.78-14.83,5.25-29.88,5.12-45.06h2.05Z"/><path class="m" d="M203.78,73.73c-4.2,1.42-9.46,5.43-14.34,6.14,2.21-1.12,6.77-3.7,4.13-6.69-1.97-1.24-12.58-.08-15.4.55l9.22-5.12c4.9,3.4,14.82-2.76,16.38,5.12Z"/><path class="m" d="M464.9,242.69h1.02c-.38,7.98-.38,17.62,0,25.6h-3.07v-25.6h2.05Z"/><path class="m" d="M463.87,214.02c-.14,1.99-.05,4.14,0,6.14.03,1.35-.51,3.38,1.02,4.1-.28,1.96.76,4.37-1.02,6.14-.62-5.03-1.86-10.93-2.05-16.38h2.05Z"/><path class="m" d="M464.9,285.7c-1.63.86-1,3.48-1.02,5.12s-.19,3.6,0,5.12h-2.05c.14-4.93,1.04-11.9,2.05-16.38.11,1.24.76,4.33,1.02,6.14Z"/><path class="e" d="M460.8,316.42c0,.09.78.58.72,1.33-.24,2.76-2.04,5.8-1.82,8.85l-1.97.06c.06-.33-.06-.69,0-1.02.44-2.63-.23-4.64,0-6.14.12-.79.85-1.89,1.02-3.07h2.05Z"/><path class="e" d="M465.92,268.29c.09,1.89,2.1,6.18,1.03,9.22h-3.07c-.02-.99-.12-2.13,0-3.08.16-1.3,2.02-3.85,1.02-6.14h1.02Z"/><path class="e" d="M463.87,233.47h3.07c1.08,3.03-.93,7.33-1.03,9.22h-1.02c.93-2.75-.76-5.41-1.02-7.17-.1-.65.09-1.39,0-2.05Z"/><path class="f" d="M410.62,404.48c.25.11.65,1.59,1.02,2.05-.33.24-.6.72-1.02,1.02h-4.1c.29-.7.74-1.34,1.02-2.05.12-.3-.12-.74,0-1.02.87.18,2.46-.26,3.07,0Z"/><path class="c" d="M456.7,331.78c-.41,2.33-1.62,4.23-2.05,6.14h-1.02c.13-.98-.15-2.11,0-3.07.26-1.65-.08-2.45,0-3.07h3.07Z"/><path class="u" d="M318.46,422.91c-5.7,3.19-11.39,6.64-17.41,9.22-1.33.57-2.23.69-3.07,1.02v-1.02c.12-.1-.31-1.43.19-1.81.81-.63,2.93,0,4.13-.49,5.34-2.23,10.5-5.4,16.16-6.91Z"/><path class="m" d="M455.68,179.2c-1.96-1.85-1.96-4.68-2.05-7.17,2.86,2.36,2.27,4.52,2.05,7.17Z"/><path class="e" d="M464.9,285.7c.15,1.04,1.94,3.08,1.02,5.13h-2.04c.02-1.65-.61-4.27,1.02-5.13Z"/><path class="e" d="M463.87,295.94c.04.36,1.68,1.56,1.02,3.07h-3.07c-.06-1-.03-2.06,0-3.07h2.05Z"/><path class="e" d="M462.85,210.94l2.14.65c.21,1.36-1.1,2.2-1.12,2.42h-2.05v-3.07h1.02Z"/><path class="e" d="M462.85,304.13c.13.45,1.34.99,1.12,2.43l-2.14.64h-1.02c.14-.95-.08-2.07,0-3.07h2.05Z"/><path class="e" d="M461.82,203.78c4.18-.26,1.1,2.32,1.02,3.07h-2.05c-.13-.98.13-2.09,0-3.07h1.02Z"/><path class="e" d="M463.87,220.16h2.04c.83,1.75-.92,3.41-1.02,4.1-1.54-.71-.99-2.75-1.02-4.1Z"/><path class="e" d="M459.78,190.46h-2.05c-.09-.66.08-1.38,0-2.05l2.05-1.02c.89,2.83.1,1.92,0,3.07Z"/><path class="m" d="M460.8,316.42h-2.05c.24-1.64.83-2.95,1.02-4.1h1.02c-.18.24.03,3.15,0,4.1Z"/><path class="m" d="M457.73,185.34c2.93-.5,1.67.85,2.05,2.05l-2.05,1.02c-.24-2.04.03-2.3,0-3.07Z"/><path class="f" d="M457.73,325.63c-.06.33.06.69,0,1.02s.06.69,0,1.02h-3.07c.41-1.37.17-2.59,2.05-3.07.17.41.66.75,1.02,1.02Z"/><path class="m" d="M462.85,206.85c-.13,1.34.09,2.75,0,4.1h-1.02c-.89-1.26-.83-2.66-1.02-4.1h2.05Z"/><path class="m" d="M460.8,194.56c-.03.87-.14,3.91,0,4.1h-1.02c-.16-1.06-.78-2.5-1.02-4.1h2.05Z"/><path class="m" d="M461.82,200.7c-.11,1,.07,2.06,0,3.07h-1.02c-.04-.33-.81-1.54-1.02-3.07h2.05Z"/><path class="e" d="M451.58,165.89h3.07c.44,1.21-1,1.94-1.02,2.05h-2.05c-.1-.67.08-1.39,0-2.05Z"/><path class="e" d="M461.82,310.27c.02.18,1.63.82.89,1.88-.47.45-1.8.03-1.91.17h-1.02c.11-.64-.11-1.41,0-2.05h2.05Z"/><path class="m" d="M461.82,307.2c.07,1.01-.11,2.07,0,3.07h-2.05c.25-1.39.97-2.74,1.02-3.07h1.02Z"/><path class="e" d="M459.78,192.51l1.93.15c.71,1.05-.9,1.76-.91,1.9h-2.05c-.1-.65.1-1.4,0-2.05h1.02Z"/><path class="e" d="M460.8,198.66c.11.14,1.44-.28,1.91.17.74,1.06-.87,1.7-.89,1.88h-2.05c-.09-.65.1-1.4,0-2.05h1.02Z"/><path class="m" d="M462.85,304.13h-2.05c.09-1.11-.35-2.57,1.02-3.07.02.16.79,2.27,1.02,3.07Z"/><path class="f" d="M456.7,329.73c-.11.64.11,1.41,0,2.05h-3.07c.14-1.09.96-1.75,1.02-2.05h2.05Z"/><path class="c" d="M457.73,327.68c-.17.98-.97,1.76-1.02,2.05h-2.05c.13-.63-.16-1.51,0-2.05h3.07Z"/><path class="m" d="M459.78,190.46c-.06.68.04,1.37,0,2.05h-1.02c-.04-.28-.89-1.08-1.02-2.05h2.05Z"/><path class="m" d="M455.68,181.25c.68.62,1.94-1.59,2.05,2.05h-2.05s0-2.05,0-2.05Z"/><path class="m" d="M403.46,98.3c-.34-.34-.74-.63-1.02-1.02.39.23.68.71,1.02,1.02Z"/><path class="n" d="M452.61,193.54c3.04-.6,1.86,1.47,2.2,3.38,2.22,12.71,4.11,25.69,3.95,38.61.68.06,1.37-.06,2.05,0-.02,3.07.04,6.15,0,9.22-.09,6.9-.08,14.54,0,21.5.03,2.39-.03,4.78,0,7.17-3.09-.57-1.99,1.57-2.05,3.54-.19,6.52-.39,12.9-1.15,19.37s-4.22,18.29-2.94,23.17c.16.6-.18,1.55,0,2.05-2.39-.71-3.6,6.87-3.8,8.91-.08.75.73,1.25.73,1.33-.04.67,0,1.37,0,2.05-2.76-.6-1.97,1.4-2.54,3.04-2.13,6.08-4,12.19-6.5,18.13s-7.11,11.36-7.35,17.74c-.65.72-1.35,1.38-2.05,2.05-1.6,1.55-5.96,1.88-5.12,7.17-.27.07-.63.81-1.02,1.02-.84.46-2.69-1.13-2.04,2.04h2.04c0,.35.01.69,0,1.03s.05.7,0,1.02c-.67.22-1.44.91-2.05,1.02-3.78.68-10.22,2.39-5.12,6.14-1.75,1.58-4.35,4.32-6.14,6.14v-2.04c-5.32-.44-4.9,3.34-6.14,6.14-.12.28.12.72,0,1.02-.64.11-1.54-.17-2.05,0l-.52-1.01h-1.52s0,2.04,0,2.04c-.13.22,0,1.46,0,2.05-4.67-.09-3.1.19-5.55,1.65-2.15,1.28-2.02-.82-2.64,2.44-.06.33.06.69,0,1.02-.68.01-1.37-.02-2.05,0-1.89.06-6.64,2.04-6.14,4.1-.32.09-.71-.09-1.02,0-3.26.98-10.97,2.52-11.26,6.14-.67.13-2.33.73-3.07,1.02l-35.34,8.2c-1.79.19-1.58.06-1.53-1.55.08-2.41,3.64-1.16,1.03-2.56,112.38-23.88,133.08-136.18,116.74-235.52Z"/><path class="l" d="M361.47,138.24h1.02l3.07,3.07c6.3,4.49,7.61,5.96,12.29,12.29-6.15-2.38-10.48-7.41-16.37-10.77-21.39-12.22-45.55-14.01-69.65-13.81-2.56.02-6.49-.8-8.19,1.02-.34,0-.68,0-1.02,0-61.33.02-97.1,21.68-107.22,84.78-7.1,44.24-4.27,109.17,27.35,143.57-6.78-3.46-15.08-11.63-18.43-18.43l-1.02-1.02v-1.02c-22.06-56.18-26.65-166.91,35.47-199.53,36.12-18.97,105.61-16.02,142.7-.15Z"/><path class="j" d="M387.07,186.37c3.47,9.04,5.47,18.4,8.19,27.65,0,.68.05,1.38,0,2.05-.12,1.58-.5,4.32,1.02,5.12-.05.68.03,1.37,0,2.05-.12,3.31.99,6.62,1.02,8.19.02,1.02-.04,2.05,0,3.07.22,6.3.97,13.59,1.02,19.46.02,2.04.03,4.1,0,6.14-.13,10.17-1.9,21.6-2.17,32.13l-7.05,41.59c-12.05,36.39-28.88,66.23-63.49,84.99-1.63.88-3.88,1.01-5.12,3.07-.72.4-1.44.68-2.05,1.02-5.66,1.51-10.83,4.68-16.16,6.91-1.2.5-3.31-.13-4.13.49-.5.39-.07,1.71-.19,1.81-1.83,1.51-37.8,7.87-42.51,8.18-56.16,3.77-118.07,1.29-160.25-39.93,7.15,2.23,12.55,8.3,19.15,12.13,1.25.73,2.57.76,3.38,1.18l1.02,1.02c.76.38,2.01.54,3.07,1.02l1.02,1.02c.29.13.74-.12,1.02,0,.5,1.72.82,2.38,2.33,3.38,33.25,22.02,119.78,21.71,157.6,12.68,51.74-12.36,86.38-46.5,101.46-97.2,11.92-40.1,16.48-114.84-2.5-152.72-.74-1.48-.46-3.22-2.89-2.69-.12-.3.12-.73,0-1.02l-1.02-1.02c-2.58-5.93-6.46-11.23-8.19-17.41,8.75,9.01,11.81,13.71,16.38,25.6Z"/><path class="r" d="M291.84,122.88c2.38.03,4.79-.09,7.17,0,2.04.07,4.11-.11,6.14,0,11.17.6,22.47,2.2,33.28,5.13,1.35.37,3.67,2.01,4.61-.01,6.29,2.5,13.68,5.32,18.43,10.24-37.09-15.87-106.58-18.82-142.7.15-62.12,32.62-57.53,143.35-35.47,199.53-6.8-7.31-9.44-17.32-12.29-26.62l-4.08-29.2c-.22-6.06,1.32-11.97-3.08-16.88.14-.97-.16-2.13,0-3.07,4.03-23.25,1.64-43.97,8.48-67.81,17.35-60.41,62.24-72.12,119.52-71.46Z"/><path class="k" d="M262.14,119.81c9.59-.36,20.08-.25,29.7,0v3.07c-57.28-.66-102.17,11.05-119.52,71.46-6.85,23.83-4.45,44.55-8.48,67.81-1.7-1.07-1.02-3.89-1.04-5.62-.9-72.89,14.98-133.59,99.35-136.72Z"/><path class="h" d="M377.86,153.6c26.24,35.49,24.82,82.71,22.53,124.93,0-.13-1.04-1.15-1.07-2.48-.09-5.12,1.02-11.28-.98-15.95.03-2.04.02-4.1,0-6.14,1.74-4.51,1.22-11.01,1.02-15.92-.08-1.97,1.05-4.11-2.05-3.54-.04-1.02.02-2.05,0-3.07,1.86-2.24.86-5.46,1.02-8.2h-2.04c.03-.67-.05-1.37,0-2.04.05-.72,1.99-3.22,1.02-5.13h-2.04c.05-.67,0-1.37,0-2.04.03-8.68-1.97-16.36-5.39-24.87-.64-1.59-.27-3.31-2.8-2.78-4.57-11.89-7.64-16.59-16.38-25.6-23.86-24.59-45.05-29.43-78.85-30.72v-1.02c24.1-.2,48.26,1.58,69.65,13.81,5.88,3.36,10.22,8.39,16.37,10.77Z"/><path class="w" d="M108.54,216.06c-.67,8.23-.89,15.23-1.02,23.55-1.71,3.79-1.73,11.36,0,15.36.79,36.24,4.53,61.28,27.65,90.11,17.18,21.42,48.49,33.47,76.29,30.71,4.29-.43,8.96-1.59,5.17-6.2-.33-.4-3.41-2.94-3.64-3l1.02-1.02c5.69,3.23,8.31,2.84,7.17,11.26-25.64.39-65.78-.03-86.02-18.43l-1.02-1.02c-.33-.35-.7-.66-1.02-1.02-31.08-35.3-29.15-94.41-26.63-138.77.14-2.5-.75-3.35,2.05-1.52Z"/><path class="ac" d="M178.18,73.73c2.82-.63,13.43-1.79,15.4-.55,2.64,3-1.92,5.57-4.13,6.69-.28.14-.78-.15-1.02,0-1.03.6-2.49,1.11-4.1,2.05-22.87,13.38-37.67,26.86-52.22,49.15-33.29,50.98-40.89,155.84-11.91,210.06.42.78,2.39,3.63.65,3.96-3.44-4.28-6.22-8.2-8.19-13.31l-1.02-1.02v-1.02c-.77-7.3-4.46-14.37-6.14-21.5-.14-.59.11-1.4,0-2.05-.18-1.05.41-2.56-1.02-3.07.09-.64-.03-1.38,0-2.05.07-1.55.19-2.9-1.02-4.1.08-.66-.04-1.37,0-2.05.08-1.54.17-2.91-1.02-4.1.12-.98-.04-2.07,0-3.07.07-1.82.37-3.62-1.02-5.12.12-1.69-.07-3.42,0-5.12.14-3.24.7-7.58-1.02-10.24.39-8.2.47-18.46,0-26.62,1.73-3.24,1.19-8.46,1.02-12.29-.07-1.7.1-3.43,0-5.12,1.83-1.99.8-4.8,1.02-7.17.1-1-.03-2.06,0-3.07.06-2.22.12-2.66,0-5.12-.03-.68.05-1.37,0-2.05h2.05c.15-1.33-.16-2.78,0-4.1.12-.98-.04-2.07,0-3.07.05-1.21-.02-2.62,0-3.07.04-.68-.05-1.37,0-2.05,3.1.6,1.8-1.51,2.19-3.39,5.23-25.51,13.42-39.35,23.41-62.14.13-.3-.16-.93,0-1.02,1.68-.97,1.28,1.56,2.05-2.05.07-.34-.09-.72,0-1.02,3.87-.99,6.22-7.27,8.19-10.24.52-.78.71-1.56,1.02-2.05,5.72-3.19,12.17-9.64,15.36-15.36.47-.29,1.38-.67,2.05-1.02,1.9-1,4.07-.68,4.1-4.1.21-.17.87.17,1.02,0l21.49-13.84c.43-2.27-1.02-1.47-2.56-1.55-3.45-.18-7.01,1.92-9.72.03,1.86-.86,2.98-1.57,5.12-2.05Z"/><path class="c" d="M108.54,216.06c-2.8-1.83-1.91-.98-2.05,1.52-2.53,44.36-4.45,103.47,26.63,138.77-4.68-1.98-9.12-7.32-12.29-11.26,1.74-.33-.23-3.18-.65-3.96-28.98-54.22-21.38-159.07,11.91-210.06-14.04,26.95-21.1,54.71-23.55,84.99Z"/><path class="d" d="M145.41,352.26l3.07,2.05c.25.15.76-.15,1.02,0,.53,1.71,1.35,2.79,2.71,3.94,10.3,8.78,45.23,16.8,58.22,14.48,1.35-.24,2.92-.98,2.56-2.54l-4.09-3.6c1.24.1,3.16-.28,4.1,0,.23.07,3.31,2.6,3.64,3,3.78,4.62-.88,5.78-5.17,6.2-27.8,2.76-59.11-9.29-76.29-30.71,4.09,1.09,6.85,5.03,10.24,7.17Z"/><path class="b" d="M460.8,235.52c-.68-.05-1.37.06-2.05,0,.16-12.92-1.73-25.9-3.95-38.61-.33-1.91.85-3.98-2.2-3.38-.05-.33.06-.69,0-1.02l-1.02-3.07c-2.42-12.87-6.58-28.76-11.26-40.96,13.34,25.15,20.65,58.51,20.48,87.04Z"/><path class="aa" d="M400.38,278.53c-.16,18.67-5.53,37.99-11.26,55.3l7.05-41.59c.27-10.53,2.04-21.96,2.17-32.13,2,4.68.89,10.83.98,15.95.02,1.33,1.07,2.34,1.07,2.48Z"/><path class="s" d="M204.8,366.59l3.07,4.09c-15.18.58-30.32-2.82-44.32-8.45-1.59-.64-3.31-.27-2.78-2.8,15.04,5.01,28.46,5.74,44.03,7.17Z"/><path class="x" d="M157.7,358.4l2.05,1.02c.3.11.72-.1,1.02,0-.53,2.53,1.19,2.16,2.78,2.8,14.01,5.63,29.14,9.03,44.32,8.45l-3.07-4.09c1.35.12,2.75-.11,4.1,0l4.09,3.6c.35,1.56-1.21,2.3-2.56,2.54-12.98,2.32-47.91-5.7-58.22-14.48-1.36-1.16-2.17-2.24-2.71-3.94,2.34,1.3,5.79,3.16,8.19,4.1Z"/><path class="y" d="M371.71,424.96c-1.46.57-3.7,1.12-3.07,3.07-4.61,1.03-4.6,2.38-10.24,2.05-.68-.04-1.37,0-2.04,0-.15.64.17,1.56,0,2.04-.65.1-1.39-.08-2.05,0l-.52-1.01h-1.52s0,2.04,0,2.04c-.67.07-1.39-.09-2.05,0l-.52-1.01h-1.52s0,2.04,0,2.04c-.63.03-1.45.09-2.05,0-.13-.02-.88-1.45-2.04-1.02-.07.67.07,1.38,0,2.04-1.01-.08-2.06.08-3.07,0-.29-.02-1.61-1.68-3.07-1.02-.07.67.08,1.38,0,2.04-1-.12-2.06.08-3.07,0-.51-.04-2.41-1.88-4.09-1.02v2.04c-1.3-.04-2.85-.14-4.1,0v-5.12c.76-.17,2.23-1.57,3.07-2.05,2.06-.41,4.27-.63,6.14-1.02,2.62,1.4-.94.15-1.03,2.56-.05,1.61-.26,1.74,1.53,1.55l35.34-8.2Z"/><path class="v" d="M171.01,311.3c-4.01-13.09-9.05-32.8-7.17-46.08,4.4,4.91,2.86,10.82,3.08,16.88l4.08,29.2Z"/><path class="v" d="M343.04,128c-.94,2.02-3.26.38-4.61.01-10.81-2.93-22.11-4.53-33.28-5.13v-2.05c15.79,1.07,22.81,1.18,37.89,7.17Z"/><path class="z" d="M300.03,119.81c-.34-.01-.68.01-1.02,0-2.38-.09-4.79.06-7.17,0-9.61-.25-20.11-.36-29.7,0,1.06-1.7,3.88-1.02,5.62-1.04,8.87-.11,17.79-.09,26.65,0,1.73.02,4.55-.65,5.62,1.04Z"/><path class="k" d="M305.15,120.83v2.05c-2.04-.11-4.1.07-6.14,0v-3.07c.34.01.68-.01,1.02,0,2.39.11,4.23.96,5.12,1.02Z"/><path class="ab" d="M107.52,254.98c-1.73-4-1.71-11.57,0-15.36-.08,5.09-.11,10.27,0,15.36Z"/><path class="f" d="M329.73,430.08c-.84.48-2.31,1.88-3.07,2.05-.9.2-2.28-.24-3.07,0v-1.02c1.98-.34,4.21-.64,6.14-1.02Z"/><path class="n" d="M452.61,192.51c-.03-.16-.74-1.54-1.02-3.07l1.02,3.07Z"/><path class="m" d="M188.42,79.87l-4.1,2.05c1.61-.94,3.07-1.44,4.1-2.05Z"/><path class="s" d="M159.74,359.42l-2.05-1.02c.85.33,1.68.89,2.05,1.02Z"/><path class="u" d="M325.63,418.82c-1.22,2.06-3.52,2.18-5.12,3.07,1.24-2.06,3.49-2.19,5.12-3.07Z"/><path class="x" d="M148.48,354.3l-3.07-2.05c1.02.64,2.53,1.73,3.07,2.05Z"/><path class="f" d="M424.96,121.86c-.31-.36-.7-.66-1.02-1.02l1.02,1.02Z"/><path class="r" d="M365.57,141.31l-3.07-3.07c1.67.23,2.4,2.59,3.07,3.07Z"/><path class="l" d="M204.8,360.45c-.37-.31-.69-.68-1.02-1.02l1.02,1.02Z"/><path class="r" d="M184.32,339.97c-.07-.14-1-.4-1.02-1.02l1.02,1.02Z"/><path class="p" d="M389.12,220.16c3.31-.57,1.75,1.68,2,3.59,10.01,75.14-8.44,168.45-85.99,199.66-34.22,13.77-96.05,16.66-131.94,9.04-1.82-.39-3.81.46-3.21-2.37,45.79,6.64,108.91,4.04,149.42-20.05,62.9-37.4,76.29-122.42,69.71-189.87Z"/><path class="y" d="M379.9,180.22c2.43-.53,2.15,1.21,2.89,2.69,18.98,37.88,14.42,112.62,2.5,152.72-15.08,50.7-49.72,84.84-101.46,97.2-37.82,9.03-124.35,9.34-157.6-12.68-1.52-1-1.84-1.67-2.33-3.38,14.9,6.41,29.96,10.97,46.08,13.31-.6,2.83,1.39,1.98,3.21,2.37,35.89,7.61,97.72,4.73,131.94-9.04,77.55-31.21,96-124.52,85.99-199.66-.25-1.91,1.31-4.16-2-3.59-1.26-12.93-4.46-27.86-9.22-39.94Z"/><path class="k" d="M167.94,78.85h8.2s-.11,2.96-.11,2.96c-3.53,2.07-8.24,4.78-11.68,7.27-.7.51-.35,1.89-.5,2.05s-.81-.17-1.02,0c-1.05.81-4.33.53-4.1,4.1-.66.35-1.58.73-2.05,1.02-6.45,3.99-11.31,9.06-15.36,15.36-.31.49-.5,1.26-1.02,2.05-3.92.88-7.13,6.64-8.19,10.24-.09.3.07.69,0,1.02h-2.05s0,2.05,0,2.05c-.16.09.13.72,0,1.02-2.29-.51-2.16,1.27-3.05,2.53-9.76,13.88-21.32,46.16-22.55,63-.05.68.04,1.37,0,2.05-1.54.14-1.54,2.93,0,3.07-.04,1.01.12,2.09,0,3.07h-2.05c.02,1.35-.09,2.74,0,4.1.05.68-.03,1.37,0,2.05-1.61.67-1.61,4.45,0,5.12-.03,1.01.1,2.07,0,3.07h-2.04c-1.06,2.4.96,6.23,1.02,7.17.1,1.69-.07,3.42,0,5.12h-5.12c3.4-58.27,19.05-117.05,71.68-149.5Z"/><path class="t" d="M99.33,228.35c.14,3.57-.23,7.2.03,10.77.12,1.64.99,1.43.99,1.52.47,8.16.39,18.43,0,26.62,0,.09-.9-.11-.99,1.52-.17,2.91.01,5.83-.03,8.73h2.05c-.07,1.69.12,3.42,0,5.11-.02.27-2.03,3.21-1.02,5.13h2.04c-.04,1,.12,2.09,0,3.07-.03.21-1.99,2.26-1.02,4.09h2.04c-.04.68.08,1.39,0,2.05-.02.21-1.99,2.25-1.02,4.09h2.04c-.03.68.09,1.41,0,2.05-.05.37-1.69,1.55-1.02,3.07h2.04c.11.65-.14,1.47,0,2.05h-2.05c-7.79-27.59-8.84-51.24-7.17-79.87h3.07Z"/><path class="b" d="M173.06,75.78c2.7,1.9,6.27-.21,9.72-.03,1.54.08,2.99-.72,2.56,1.55l-21.49,13.84c.15-.17-.2-1.55.5-2.05,3.44-2.5,8.15-5.2,11.68-7.27l.11-2.96h-8.2c1.48-.92,3.71-2.43,5.12-3.08Z"/><path class="b" d="M105.47,308.22c1.68,7.13,5.38,14.21,6.14,21.5-4.85-6.14-6.13-14.2-8.19-21.5h2.05Z"/><path class="y" d="M122.88,416.77l-1.02-1.02c.47.22.77.91,1.02,1.02Z"/><path class="y" d="M118.78,414.72l-1.02-1.02c.54.28.83.93,1.02,1.02Z"/><path class="b" d="M112.64,331.78c-.03-.07-.75-.24-1.02-1.02l1.02,1.02Z"/><path class="y" d="M379.9,179.2c-.1-.24-.82-.55-1.02-1.02l1.02,1.02Z"/><path class="c" d="M135.17,358.4c-.36-.33-.69-.67-1.02-1.02l1.02,1.02Z"/><path class="f" d="M322.56,432.13l-2.05,6.14c-.1.07.36,1.99-.58,2.08l-4.89-1.08c-4.27-1.98,5.83-6.57,7.52-7.14Z"/><path class="x" d="M326.66,432.13v5.12c-.47.05-.91.54-1.02,1.02-.88-.1-4.91-.15-5.12,0l2.05-6.14c.3-.1.71.09,1.02,0,.79-.24,2.17.2,3.07,0Z"/><path class="f" d="M388.1,419.84c-3.29,4.8-6.71,4.83-12.29,6.14.67-.61,1.31-1.58,2.05-2.05,1.12-.7,6.52-3.88,7.17-4.1.73-.24,2.16.17,3.07,0Z"/><path class="f" d="M369.66,428.03c1.1,2.05-7.35,4.43-9.26,4.73-1.56.24-1.9-.65-2-.63v-2.05c5.64.33,5.63-1.02,10.24-2.05.32-.07.69.06,1.02,0Z"/><path class="f" d="M356.35,432.13c-.2.56.62,1.89-.66,2.09-2.45-.03-5.16,1.66-7.36,1.83-1.55.12-2.1-.84-2.22-.84v-1.02c.6.09,1.41.03,2.05,0,1-.05,1.77-.98,2.05-1.02.65-.09,1.38.07,2.05,0,.96-.1,1.79-.99,2.05-1.02.66-.08,1.4.1,2.05,0Z"/><path class="f" d="M401.41,411.65c0,.68-.01,1.37,0,2.05-1.09.26-5.48,1.65-6.14,2.05-1.02.61.83,1.44-5.12,3.07l-1.02-1.02c1.94-.51,2.54-1.11,4.1-2.05.4-.24,1.81.24,2.05,0,.17-.17-.11-1.43,0-2.05.06-.33-.06-.69,0-1.02,1.92-.93,4.33-.61,6.14-1.02Z"/><path class="x" d="M377.86,423.94c-.74.46-1.37,1.44-2.05,2.05-.32.08-.69-.06-1.02,0-1.63.29-3.13.48-4.1,2.05-.34.04-.7-.06-1.02,0s-.7-.07-1.02,0c-.63-1.95,1.61-2.5,3.07-3.07.74-.29,2.41-.89,3.07-1.02.9-.18,2.09.12,3.07,0Z"/><path class="f" d="M330.75,437.25c.34.01.68-.01,1.02,0v2.05c-2.29,1-4.9-.88-6.14-1.02.11-.48.56-.97,1.02-1.02,1.25-.14,2.8-.04,4.1,0Z"/><path class="x" d="M334.85,436.22v1.02c-1.01-.09-2.06.04-3.07,0-.34-.01-.68.01-1.02,0v-2.04c1.68-.86,3.59.98,4.1,1.02Z"/><path class="x" d="M389.12,417.79l1.02,1.02c-1.03.28-1.13-.32-2.05,1.02-.91.17-2.34-.24-3.07,0l1.02-2.05c.31-.09.71.09,1.02,0,.57-.16,1.46.15,2.05,0Z"/><path class="f" d="M337.92,436.22c-.08.66.06,1.37,0,2.04-1.46.66-2.78-.99-3.07-1.02v-1.02c1.01.08,2.07-.12,3.07,0Z"/><path class="f" d="M344.06,435.2c-.08.66.06,1.37,0,2.04-1.46.66-2.78-.99-3.07-1.02v-1.02c1.01.08,2.06-.08,3.07,0Z"/><path class="x" d="M340.99,435.2v1.02c-1.01-.08-2.07.12-3.07,0,.08-.66-.06-1.37,0-2.04,1.46-.66,2.78.99,3.07,1.02Z"/><path class="f" d="M374.78,425.98v2.05c-1.33.15-2.78-.17-4.1,0,.96-1.57,2.47-1.76,4.1-2.05Z"/><path class="x" d="M346.11,434.18v1.02c-.68-.02-1.37.05-2.05,0,.08-.66-.06-1.37,0-2.04,1.16-.43,1.91,1,2.04,1.02Z"/><path class="x" d="M358.4,430.08v2.05c-.65.11-1.4-.1-2.05,0,.17-.49-.14-1.41,0-2.04.68,0,1.36-.04,2.04,0Z"/><path class="ac" d="M462.85,235.52v9.22h-2.05c.04-3.06-.02-6.15,0-9.22.68.05,1.37-.03,2.05,0Z"/><path class="f" d="M452.61,343.04c-2.8,8.01-7.95,18.82-12.11,26.29-.96,1.72-6.99,11.99-7.58,12.41-.68.48-1.34.1-1.81.21l2.05-7.17c.7-.67,1.4-1.33,2.05-2.05,7.28-8.12,9.19-22.88,14.34-30.72l3.07,1.02Z"/><path class="y" d="M424.96,388.1l-1.02,3.07c-1.31.98-2.9,1.99-4.1,3.07-5.1-3.76,1.34-5.47,5.12-6.14Z"/><path class="y" d="M407.55,404.48c1.25-2.8.83-6.58,6.14-6.14v2.04c-1.05,1.07-2.07,2.87-3.07,4.1-.62-.26-2.2.18-3.07,0Z"/><path class="y" d="M433.15,374.78l-2.05,7.17c-.6.15-1.46-.15-2.05,0-.32.08-.7-.08-1.02,0-.84-5.29,3.52-5.62,5.12-7.17Z"/><path class="c" d="M452.61,343.04l-3.07-1.02c.76-1.16.97-1.28,2.05-2.05.59-.43,1.42-.63,2.05-1.02-.34,2.01-.35,2.18-1.02,4.1Z"/><path class="f" d="M423.94,391.17l1.02-3.07c.61-.11,1.38-.8,2.05-1.02-.79,5.05-.98,2.54-3.07,4.1Z"/><path class="f" d="M453.63,334.85c-.15.96.13,2.1,0,3.07-.05.34.06.69,0,1.02-.63.39-1.45.6-2.05,1.02-.79-1.46-.02-3.07,0-4.1l1.01,1.02.02-3.07,1.01,1.02Z"/><path class="x" d="M427.01,386.05c.01-.34,0-.68,0-1.02v-2.05c.39-.21.75-.95,1.02-1.02.32-.08.7.08,1.02,0,.18,1.79-.17,3.56-2.05,4.1Z"/><path class="b" d="M460.8,273.41c0,.34,0,.68,0,1.02.13,15.18-2.34,30.22-5.12,45.06h-1.02c-1.27-4.88,2.21-17.01,2.94-23.17.77-6.48.96-12.85,1.15-19.37.06-1.97-1.04-4.11,2.05-3.54Z"/><path class="ac" d="M462.85,266.24v8.19h-2.05c0-.34,0-.68,0-1.02-.03-2.39.03-4.78,0-7.17h2.05Z"/><path class="x" d="M457.73,319.49c-.23,1.5.44,3.52,0,6.14-.36-.27-.85-.61-1.02-1.02-.84-2.03-1.98-2.9-2.05-3.07-.18-.49.16-1.45,0-2.05h3.07Z"/><path class="b" d="M462.85,244.74v21.5h-2.05c-.08-6.97-.09-14.6,0-21.5h2.05Z"/><path class="x" d="M407.55,405.5c-.28.71-.73,1.35-1.02,2.05-.11.27-.76.62-1.02,1.02-.68,0-1.37.01-2.05,0,0-.58-.13-1.83,0-2.05.06-.1,1.94-.99,2.05-1.02.51-.17,1.41.11,2.05,0Z"/><path class="f" d="M405.5,408.58c-.24.36.24,1.8,0,2.05-.22.22-1.5-.2-2.05,0v-2.05c.68.01,1.37,0,2.05,0Z"/><path class="x" d="M453.63,331.78c-.08.62.26,1.42,0,3.07l-1.01-1.02-.02,3.07-1.01-1.02c.01-.68,0-1.37,0-2.05s-.04-1.37,0-2.05h2.05Z"/><path class="y" d="M403.46,408.58v2.05c-.75.28-1.78.96-2.05,1.02-1.82.41-4.23.09-6.14,1.02.62-3.27.49-1.16,2.64-2.44,2.45-1.46.88-1.74,5.55-1.65Z"/><path class="b" d="M454.66,321.54c.06.17,1.21,1.04,2.05,3.07-1.88.48-1.63,1.7-2.05,3.07-.16.54.13,1.42,0,2.05-.06.3-.88.96-1.02,2.05h-2.05c0-.08-.8-.58-.73-1.33.21-2.04,1.41-9.62,3.8-8.91Z"/><path class="b" d="M451.58,333.82c0,.68.01,1.37,0,2.05-.02,1.03-.79,2.64,0,4.1-1.07.77-1.28.89-2.05,2.05-5.15,7.84-7.05,22.6-14.34,30.72.24-6.38,4.91-11.95,7.35-17.74s4.36-12.06,6.5-18.13c.57-1.63-.22-3.63,2.54-3.04Z"/><path class="y" d="M386.05,417.79l-1.02,2.05c-.65.22-6.05,3.39-7.17,4.1-.98.12-2.17-.18-3.07,0,.29-3.63,8-5.17,11.26-6.14Z"/><path class="y" d="M393.22,413.7v2.05c-1.56.93-2.15,1.54-4.1,2.05-.59.15-1.48-.16-2.05,0-.5-2.05,4.26-4.04,6.14-4.1Z"/><path class="y" d="M427.01,382.98v2.05h-2.04c-.65-3.18,1.2-1.59,2.04-2.05Z"/><path class="y" d="M405.5,405.5c-.11.04-1.99.93-2.05,1.02v-2.04s1.53,0,1.53,0l.52,1.01Z"/><path class="x" d="M395.26,413.7c-.11.62.17,1.88,0,2.05-.24.24-1.65-.24-2.05,0v-2.05c.68-.02,1.37.01,2.05,0Z"/><path class="aa" d="M387.07,186.37c2.54-.53,2.16,1.19,2.8,2.78,3.42,8.51,5.42,16.19,5.39,24.87-2.72-9.25-4.72-18.61-8.19-27.65Z"/><path class="aa" d="M397.31,234.5c3.1-.57,1.97,1.57,2.05,3.54.19,4.91.72,11.41-1.02,15.92-.05-5.87-.81-13.16-1.02-19.46Z"/><path class="aa" d="M396.29,223.23h2.04c-.16,2.73.84,5.95-1.02,8.19-.04-1.57-1.15-4.88-1.02-8.19Z"/><path class="aa" d="M395.26,216.06h2.04c.97,1.9-.97,4.4-1.02,5.12-1.52-.8-1.14-3.54-1.02-5.12Z"/><path class="v" d="M299.01,119.81v3.07c-2.38-.09-4.78.03-7.17,0v-3.07c2.38.06,4.79-.09,7.17,0Z"/><path class="b" d="M130.05,128c-9.99,22.79-18.18,36.63-23.41,62.14-.39,1.88.92,3.99-2.19,3.39,1.23-16.85,12.79-49.13,22.55-63,.89-1.26.76-3.04,3.05-2.53Z"/><path class="b" d="M156.67,96.26c-3.19,5.72-9.64,12.17-15.36,15.36,4.05-6.3,8.91-11.37,15.36-15.36Z"/><path class="b" d="M101.38,228.35c.17,3.83.71,9.05-1.02,12.29,0-.09-.87.12-.99-1.52-.26-3.58.11-7.2-.03-10.77h2.05Z"/><path class="b" d="M140.29,113.66c-1.97,2.97-4.32,9.25-8.19,10.24,1.06-3.6,4.27-9.36,8.19-10.24Z"/><path class="b" d="M101.38,277.5h-2.05c.04-2.89-.14-5.82.03-8.72.09-1.63.99-1.43.99-1.52,1.72,2.66,1.16,7,1.02,10.24Z"/><path class="b" d="M102.4,216.06c-.23,2.37.8,5.17-1.02,7.17-.06-.94-2.08-4.77-1.02-7.18h2.04Z"/><path class="b" d="M102.4,287.74h-2.04c-1-1.91,1-4.85,1.02-5.12,1.4,1.5,1.1,3.3,1.02,5.12Z"/><path class="b" d="M162.82,91.14c-.03,3.42-2.19,3.09-4.1,4.1-.23-3.56,3.04-3.28,4.1-4.1Z"/><path class="b" d="M102.4,212.99c-1.61-.67-1.61-4.45,0-5.12.12,2.46.06,2.9,0,5.12Z"/><path class="b" d="M103.42,294.91h-2.04c-.97-1.84.99-3.89,1.02-4.1,1.2,1.18,1.11,2.56,1.02,4.1Z"/><path class="b" d="M104.45,301.06h-2.04c-.97-1.85,1-3.89,1.02-4.1,1.21,1.2,1.09,2.55,1.02,4.1Z"/><path class="b" d="M104.45,201.73c-.17,1.32.14,2.76,0,4.1h-2.05c-.09-1.36.03-2.75,0-4.11h2.05Z"/><path class="b" d="M104.45,198.66c-1.54-.14-1.54-2.93,0-3.07-.02.46.05,1.86,0,3.07Z"/><path class="b" d="M105.47,306.18h-2.04c-.67-1.52.96-2.7,1.02-3.07,1.44.51.85,2.02,1.02,3.07Z"/><path class="b" d="M132.1,124.93c-.77,3.6-.37,1.08-2.05,2.05v-2.05s2.05,0,2.05,0Z"/><path class="x" d="M350.21,433.15c-.28.04-1.05.97-2.05,1.02v-2.04s1.53,0,1.53,0l.52,1.01Z"/><path class="x" d="M354.3,432.13c-.26.03-1.09.93-2.05,1.02v-2.04s1.53,0,1.53,0l.52,1.01Z"/></svg>